<svg width="64" height="64" viewBox="0 0 64 64" fill="none" xmlns="http://www.w3.org/2000/svg">
  <defs>
    <linearGradient id="grad64" x1="0%" y1="0%" x2="100%" y2="100%">
      <stop offset="0%" style="stop-color:#8b5cf6"/>
      <stop offset="30%" style="stop-color:#a855f7"/>
      <stop offset="70%" style="stop-color:#c084fc"/>
      <stop offset="100%" style="stop-color:#06b6d4"/>
    </linearGradient>
    <linearGradient id="accent64" x1="0%" y1="0%" x2="100%" y2="0%">
      <stop offset="0%" style="stop-color:#c084fc"/>
      <stop offset="100%" style="stop-color:#0891b2"/>
    </linearGradient>
    <filter id="glow64">
      <feGaussianBlur stdDeviation="1.2" result="coloredBlur"/>
      <feMerge><feMergeNode in="coloredBlur"/><feMergeNode in="SourceGraphic"/></feMerge>
    </filter>
  </defs>
  
  <!-- Fundo com gradiente sutil -->
  <circle cx="32" cy="32" r="28" fill="url(#grad64)" opacity="0.12"/>
  
  <!-- Rede de conexões principal -->
  <g stroke="url(#grad64)" stroke-width="2" fill="none" opacity="0.85">
    <path d="M16 22 L32 14 L48 22 L42 42 L22 42 Z"/>
    <path d="M32 14 L32 32"/>
    <path d="M22 42 L32 32 L42 42"/>
    <path d="M16 22 L24 32"/>
    <path d="M48 22 L40 32"/>
    <path d="M24 32 L40 32"/>
  </g>
  
  <!-- Rede secundária para complexidade -->
  <g stroke="url(#accent64)" stroke-width="1.5" fill="none" opacity="0.6">
    <path d="M12 18 L20 26"/>
    <path d="M44 26 L52 18"/>
    <path d="M20 38 L12 46"/>
    <path d="M44 38 L52 46"/>
  </g>
  
  <!-- Nós da rede com efeito glow -->
  <g filter="url(#glow64)">
    <!-- Nó central principal -->
    <circle cx="32" cy="32" r="4.5" fill="url(#grad64)"/>
    
    <!-- Nós primários -->
    <circle cx="16" cy="22" r="3" fill="#8b5cf6"/>
    <circle cx="32" cy="14" r="3" fill="#a855f7"/>
    <circle cx="48" cy="22" r="3" fill="#06b6d4"/>
    <circle cx="22" cy="42" r="3" fill="#c084fc"/>
    <circle cx="42" cy="42" r="3" fill="#0891b2"/>
    
    <!-- Nós secundários -->
    <circle cx="24" cy="32" r="2.5" fill="#a855f7"/>
    <circle cx="40" cy="32" r="2.5" fill="#06b6d4"/>
    
    <!-- Nós periféricos -->
    <circle cx="12" cy="18" r="2" fill="#8b5cf6" opacity="0.8"/>
    <circle cx="52" cy="18" r="2" fill="#06b6d4" opacity="0.8"/>
    <circle cx="12" cy="46" r="2" fill="#c084fc" opacity="0.8"/>
    <circle cx="52" cy="46" r="2" fill="#0891b2" opacity="0.8"/>
  </g>
  
  <!-- Elementos de código (brackets) -->
  <g fill="none" stroke="url(#accent64)" stroke-width="2.5" opacity="0.9">
    <path d="M8 18 L4 22 L4 42 L8 46"/>
    <path d="M56 18 L60 22 L60 42 L56 46"/>
  </g>
  
  <!-- Letra "C" estilizada central -->
  <path d="M38 26 C38 24 36 22 32 22 C28 22 26 24 26 26 L26 38 C26 40 28 42 32 42 C36 42 38 40 38 38" 
        stroke="white" stroke-width="3" fill="none" opacity="0.95"/>
  
  <!-- Detalhes adicionais de código -->
  <g fill="url(#accent64)" opacity="0.7">
    <rect x="10" y="28" width="2" height="8" rx="1"/>
    <rect x="52" y="28" width="2" height="8" rx="1"/>
    <circle cx="32" cy="8" r="1.5"/>
    <circle cx="32" cy="56" r="1.5"/>
  </g>
</svg>