<svg width="32" height="32" viewBox="0 0 32 32" fill="none" xmlns="http://www.w3.org/2000/svg">
  <defs>
    <linearGradient id="grad32" x1="0%" y1="0%" x2="100%" y2="100%">
      <stop offset="0%" style="stop-color:#8b5cf6"/>
      <stop offset="50%" style="stop-color:#a855f7"/>
      <stop offset="100%" style="stop-color:#06b6d4"/>
    </linearGradient>
    <filter id="glow32">
      <feGaussianBlur stdDeviation="0.8" result="coloredBlur"/>
      <feMerge><feMergeNode in="coloredBlur"/><feMergeNode in="SourceGraphic"/></feMerge>
    </filter>
  </defs>
  
  <circle cx="16" cy="16" r="14" fill="url(#grad32)" opacity="0.15"/>
  
  <g stroke="url(#grad32)" stroke-width="1.5" fill="none" opacity="0.9">
    <path d="M8 11 L16 7 L24 11 L21 21 L11 21 Z"/>
    <path d="M16 7 L16 16"/>
    <path d="M11 21 L16 16 L21 21"/>
    <path d="M8 11 L12 16"/>
    <path d="M24 11 L20 16"/>
  </g>
  
  <g filter="url(#glow32)">
    <circle cx="16" cy="16" r="3" fill="url(#grad32)"/>
    <circle cx="8" cy="11" r="2" fill="#8b5cf6"/>
    <circle cx="16" cy="7" r="2" fill="#a855f7"/>
    <circle cx="24" cy="11" r="2" fill="#06b6d4"/>
    <circle cx="11" cy="21" r="2" fill="#c084fc"/>
    <circle cx="21" cy="21" r="2" fill="#0891b2"/>
  </g>
  
  <g fill="none" stroke="white" stroke-width="2" opacity="0.8">
    <path d="M5 9 L3 11 L3 21 L5 23"/>
    <path d="M27 9 L29 11 L29 21 L27 23"/>
  </g>
  
  <path d="M19 13 C19 12 18 11 16 11 C14 11 13 12 13 13 L13 19 C13 20 14 21 16 21 C18 21 19 20 19 19" 
        stroke="white" stroke-width="2" fill="none" opacity="0.95"/>
</svg>