<svg width="128" height="128" viewBox="0 0 128 128" fill="none" xmlns="http://www.w3.org/2000/svg">
  <defs>
    <linearGradient id="grad128" x1="0%" y1="0%" x2="100%" y2="100%">
      <stop offset="0%" style="stop-color:#8b5cf6"/>
      <stop offset="25%" style="stop-color:#a855f7"/>
      <stop offset="50%" style="stop-color:#c084fc"/>
      <stop offset="75%" style="stop-color:#06b6d4"/>
      <stop offset="100%" style="stop-color:#0891b2"/>
    </linearGradient>
    <linearGradient id="accent128" x1="0%" y1="0%" x2="100%" y2="0%">
      <stop offset="0%" style="stop-color:#c084fc"/>
      <stop offset="50%" style="stop-color:#a855f7"/>
      <stop offset="100%" style="stop-color:#0891b2"/>
    </linearGradient>
    <radialGradient id="radial128" cx="50%" cy="50%" r="50%">
      <stop offset="0%" style="stop-color:#8b5cf6" stop-opacity="0.2"/>
      <stop offset="100%" style="stop-color:#06b6d4" stop-opacity="0.05"/>
    </radialGradient>
    <filter id="glow128">
      <feGaussianBlur stdDeviation="2" result="coloredBlur"/>
      <feMerge><feMergeNode in="coloredBlur"/><feMergeNode in="SourceGraphic"/></feMerge>
    </filter>
    <filter id="shadow128">
      <feDropShadow dx="1" dy="1" stdDeviation="1" flood-color="#8b5cf6" flood-opacity="0.3"/>
    </filter>
  </defs>
  
  <!-- Fundo radial -->
  <circle cx="64" cy="64" r="56" fill="url(#radial128)"/>
  
  <!-- Rede de conexões principal -->
  <g stroke="url(#grad128)" stroke-width="3" fill="none" opacity="0.9">
    <path d="M32 44 L64 28 L96 44 L84 84 L44 84 Z"/>
    <path d="M64 28 L64 64"/>
    <path d="M44 84 L64 64 L84 84"/>
    <path d="M32 44 L48 64"/>
    <path d="M96 44 L80 64"/>
    <path d="M48 64 L80 64"/>
  </g>
  
  <!-- Rede secundária complexa -->
  <g stroke="url(#accent128)" stroke-width="2" fill="none" opacity="0.7">
    <path d="M24 36 L40 52"/>
    <path d="M88 52 L104 36"/>
    <path d="M40 76 L24 92"/>
    <path d="M88 76 L104 92"/>
    <path d="M20 64 L32 64"/>
    <path d="M96 64 L108 64"/>
    <path d="M64 20 L64 32"/>
    <path d="M64 96 L64 108"/>
  </g>
  
  <!-- Rede terciária para profundidade -->
  <g stroke="url(#grad128)" stroke-width="1.5" fill="none" opacity="0.5">
    <circle cx="64" cy="64" r="40" stroke-dasharray="4,4"/>
    <circle cx="64" cy="64" r="24" stroke-dasharray="2,2"/>
  </g>
  
  <!-- Nós da rede com efeitos avançados -->
  <g filter="url(#glow128)">
    <!-- Nó central principal -->
    <circle cx="64" cy="64" r="8" fill="url(#grad128)" filter="url(#shadow128)"/>
    
    <!-- Nós primários -->
    <circle cx="32" cy="44" r="5" fill="#8b5cf6"/>
    <circle cx="64" cy="28" r="5" fill="#a855f7"/>
    <circle cx="96" cy="44" r="5" fill="#06b6d4"/>
    <circle cx="44" cy="84" r="5" fill="#c084fc"/>
    <circle cx="84" cy="84" r="5" fill="#0891b2"/>
    
    <!-- Nós secundários -->
    <circle cx="48" cy="64" r="4" fill="#a855f7"/>
    <circle cx="80" cy="64" r="4" fill="#06b6d4"/>
    
    <!-- Nós terciários -->
    <circle cx="24" cy="36" r="3" fill="#8b5cf6" opacity="0.9"/>
    <circle cx="104" cy="36" r="3" fill="#06b6d4" opacity="0.9"/>
    <circle cx="24" cy="92" r="3" fill="#c084fc" opacity="0.9"/>
    <circle cx="104" cy="92" r="3" fill="#0891b2" opacity="0.9"/>
    
    <!-- Nós periféricos -->
    <circle cx="20" cy="64" r="2.5" fill="#a855f7" opacity="0.8"/>
    <circle cx="108" cy="64" r="2.5" fill="#06b6d4" opacity="0.8"/>
    <circle cx="64" cy="20" r="2.5" fill="#8b5cf6" opacity="0.8"/>
    <circle cx="64" cy="108" r="2.5" fill="#0891b2" opacity="0.8"/>
  </g>
  
  <!-- Elementos de código (brackets) refinados -->
  <g fill="none" stroke="url(#accent128)" stroke-width="4" opacity="0.95">
    <path d="M16 36 L8 44 L8 84 L16 92"/>
    <path d="M112 36 L120 44 L120 84 L112 92"/>
  </g>
  
  <!-- Símbolos de código adicionais -->
  <g fill="none" stroke="url(#grad128)" stroke-width="2.5" opacity="0.8">
    <path d="M28 20 L32 24 L28 28"/>
    <path d="M100 20 L96 24 L100 28"/>
    <path d="M28 100 L32 104 L28 108"/>
    <path d="M100 100 L96 104 L100 108"/>
  </g>
  
  <!-- Letra "C" estilizada central com detalhes -->
  <g filter="url(#shadow128)">
    <path d="M76 52 C76 48 72 44 64 44 C56 44 52 48 52 52 L52 76 C52 80 56 84 64 84 C72 84 76 80 76 76" 
          stroke="white" stroke-width="5" fill="none" opacity="0.98"/>
    <!-- Detalhes internos do C -->
    <circle cx="64" cy="52" r="1.5" fill="white" opacity="0.8"/>
    <circle cx="64" cy="76" r="1.5" fill="white" opacity="0.8"/>
  </g>
  
  <!-- Elementos decorativos de tecnologia -->
  <g fill="url(#accent128)" opacity="0.6">
    <!-- Pixels/bits decorativos -->
    <rect x="18" y="56" width="3" height="16" rx="1.5"/>
    <rect x="107" y="56" width="3" height="16" rx="1.5"/>
    <rect x="56" y="18" width="16" height="3" rx="1.5"/>
    <rect x="56" y="107" width="16" height="3" rx="1.5"/>
    
    <!-- Pontos de dados -->
    <circle cx="36" cy="28" r="2"/>
    <circle cx="92" cy="28" r="2"/>
    <circle cx="36" cy="100" r="2"/>
    <circle cx="92" cy="100" r="2"/>
  </g>
  
  <!-- Efeito de borda externa sutil -->
  <circle cx="64" cy="64" r="62" fill="none" stroke="url(#grad128)" stroke-width="1" opacity="0.3"/>
</svg>