<svg width="300" height="80" viewBox="0 0 300 80" fill="none" xmlns="http://www.w3.org/2000/svg">
  <defs>
    <linearGradient id="logoGradient" x1="0%" y1="0%" x2="100%" y2="0%">
      <stop offset="0%" style="stop-color:#8b5cf6;stop-opacity:1" />
      <stop offset="50%" style="stop-color:#a855f7;stop-opacity:1" />
      <stop offset="100%" style="stop-color:#06b6d4;stop-opacity:1" />
    </linearGradient>
    <filter id="logoGlow">
      <feGaussianBlur stdDeviation="2" result="coloredBlur"/>
      <feMerge> 
        <feMergeNode in="coloredBlur"/>
        <feMergeNode in="SourceGraphic"/>
      </feMerge>
    </filter>
  </defs>
  
  <!-- Network graphic elements -->
  <g stroke="#8b5cf6" stroke-width="1" opacity="0.7">
    <line x1="10" y1="25" x2="25" y2="35" />
    <line x1="25" y1="35" x2="40" y2="30" />
    <line x1="40" y1="30" x2="55" y2="40" />
    <line x1="25" y1="35" x2="35" y2="50" />
    <line x1="35" y1="50" x2="50" y2="55" />
    <line x1="40" y1="30" x2="50" y2="55" />
  </g>
  
  <!-- Network nodes -->
  <g filter="url(#logoGlow)">
    <circle cx="10" cy="25" r="3" fill="#8b5cf6" />
    <circle cx="25" cy="35" r="4" fill="#a855f7" />
    <circle cx="40" cy="30" r="3" fill="#c084fc" />
    <circle cx="55" cy="40" r="4" fill="#06b6d4" />
    <circle cx="35" cy="50" r="3" fill="#8b5cf6" />
    <circle cx="50" cy="55" r="4" fill="#0891b2" />
  </g>
  
  <!-- CODECRAFT text -->
  <text x="75" y="35" font-family="Arial, sans-serif" font-size="24" font-weight="bold" fill="url(#logoGradient)">
    CODECRAFT
  </text>
  
  <!-- GEN-Z text -->
  <text x="75" y="55" font-family="Arial, sans-serif" font-size="12" font-weight="normal" fill="#a855f7" opacity="0.8">
    GEN-Z
  </text>
  
  <!-- Additional network elements on the right -->
  <g stroke="#06b6d4" stroke-width="1" opacity="0.5">
    <line x1="250" y1="20" x2="265" y2="25" />
    <line x1="265" y1="25" x2="280" y2="20" />
    <line x1="265" y1="25" x2="270" y2="40" />
    <line x1="270" y1="40" x2="285" y2="45" />
  </g>
  
  <g filter="url(#logoGlow)">
    <circle cx="250" cy="20" r="2" fill="#06b6d4" />
    <circle cx="265" cy="25" r="3" fill="#0891b2" />
    <circle cx="280" cy="20" r="2" fill="#06b6d4" />
    <circle cx="270" cy="40" r="3" fill="#0891b2" />
    <circle cx="285" cy="45" r="2" fill="#06b6d4" />
  </g>
</svg>