<svg width="1920" height="1080" viewBox="0 0 1920 1080" fill="none" xmlns="http://www.w3.org/2000/svg">
  <defs>
    <radialGradient id="backgroundGradient" cx="50%" cy="50%" r="70%">
      <stop offset="0%" style="stop-color:#1a1a2e;stop-opacity:1" />
      <stop offset="50%" style="stop-color:#16213e;stop-opacity:1" />
      <stop offset="100%" style="stop-color:#0f3460;stop-opacity:1" />
    </radialGradient>
    <filter id="glow">
      <feGaussianBlur stdDeviation="3" result="coloredBlur"/>
      <feMerge> 
        <feMergeNode in="coloredBlur"/>
        <feMergeNode in="SourceGraphic"/>
      </feMerge>
    </filter>
  </defs>
  
  <!-- Background -->
  <rect width="1920" height="1080" fill="url(#backgroundGradient)"/>
  
  <!-- Network connections -->
  <g stroke="#6366f1" stroke-width="1" opacity="0.6">
    <line x1="150" y1="200" x2="350" y2="300" />
    <line x1="350" y1="300" x2="550" y2="250" />
    <line x1="550" y1="250" x2="750" y2="400" />
    <line x1="750" y1="400" x2="950" y2="350" />
    <line x1="950" y1="350" x2="1150" y2="500" />
    <line x1="1150" y1="500" x2="1350" y2="450" />
    <line x1="1350" y1="450" x2="1550" y2="600" />
    <line x1="1550" y1="600" x2="1750" y2="550" />
    
    <line x1="200" y1="600" x2="400" y2="700" />
    <line x1="400" y1="700" x2="600" y2="650" />
    <line x1="600" y1="650" x2="800" y2="800" />
    <line x1="800" y1="800" x2="1000" y2="750" />
    <line x1="1000" y1="750" x2="1200" y2="900" />
    <line x1="1200" y1="900" x2="1400" y2="850" />
    <line x1="1400" y1="850" x2="1600" y2="1000" />
    
    <!-- Cross connections -->
    <line x1="350" y1="300" x2="400" y2="700" />
    <line x1="550" y1="250" x2="600" y2="650" />
    <line x1="750" y1="400" x2="800" y2="800" />
    <line x1="950" y1="350" x2="1000" y2="750" />
    <line x1="1150" y1="500" x2="1200" y2="900" />
    <line x1="1350" y1="450" x2="1400" y2="850" />
  </g>
  
  <!-- Network nodes -->
  <g filter="url(#glow)">
    <!-- Top row nodes -->
    <circle cx="150" cy="200" r="6" fill="#8b5cf6" />
    <circle cx="350" cy="300" r="8" fill="#a855f7" />
    <circle cx="550" cy="250" r="6" fill="#c084fc" />
    <circle cx="750" cy="400" r="10" fill="#8b5cf6" />
    <circle cx="950" cy="350" r="7" fill="#a855f7" />
    <circle cx="1150" cy="500" r="9" fill="#c084fc" />
    <circle cx="1350" cy="450" r="6" fill="#8b5cf6" />
    <circle cx="1550" cy="600" r="8" fill="#06b6d4" />
    <circle cx="1750" cy="550" r="10" fill="#0891b2" />
    
    <!-- Bottom row nodes -->
    <circle cx="200" cy="600" r="7" fill="#8b5cf6" />
    <circle cx="400" cy="700" r="6" fill="#a855f7" />
    <circle cx="600" cy="650" r="8" fill="#c084fc" />
    <circle cx="800" cy="800" r="9" fill="#8b5cf6" />
    <circle cx="1000" cy="750" r="6" fill="#a855f7" />
    <circle cx="1200" cy="900" r="10" fill="#c084fc" />
    <circle cx="1400" cy="850" r="7" fill="#06b6d4" />
    <circle cx="1600" cy="1000" r="8" fill="#0891b2" />
    
    <!-- Additional scattered nodes -->
    <circle cx="300" cy="150" r="4" fill="#8b5cf6" />
    <circle cx="700" cy="100" r="5" fill="#a855f7" />
    <circle cx="1100" cy="200" r="4" fill="#c084fc" />
    <circle cx="1500" cy="150" r="6" fill="#06b6d4" />
    <circle cx="100" cy="500" r="5" fill="#8b5cf6" />
    <circle cx="500" cy="550" r="4" fill="#a855f7" />
    <circle cx="900" cy="600" r="5" fill="#c084fc" />
    <circle cx="1300" cy="700" r="4" fill="#06b6d4" />
    <circle cx="1700" cy="800" r="6" fill="#0891b2" />
  </g>
</svg>